<svg xmlns="http://www.w3.org/2000/svg" width="1016" height="702" viewBox="0 0 1016 702">
  <rect width="100%" height="100%" fill="#ffffff"/>
  <style>
    .title { font: 700 34px "Noto Sans CJK SC", "Microsoft YaHei", sans-serif; fill:#111827; }
    .nodeLabel { font: 20px "Noto Sans CJK SC", "Microsoft YaHei", sans-serif; fill:#111827; text-anchor:middle; dominant-baseline:middle; }
    .arrow { stroke:#374151; stroke-width:3.2; fill:none; stroke-linecap:round; stroke-linejoin:round; }
  </style>
  <text x="55" y="48" class="title">OpenClaw 从发送消息到完整反馈的流程</text>

<rect x="59" y="76" width="195" height="82" rx="18" ry="18" fill="rgba(15,23,42,0.08)"/>
<rect x="55" y="70" width="195" height="82" rx="18" ry="18" fill="#fef3c7" stroke="#f59e0b" stroke-width="3.2" transform="rotate(0.6 152.5 111.0)"/>
<rect x="57" y="72" width="191" height="78" rx="16" ry="16" fill="none" stroke="#ffffff" stroke-width="1.2" opacity="0.8" transform="rotate(-0.35 152.5 111.0)"/>
<text x="152.5" y="111.0" class="nodeLabel">用户消息</text>
<rect x="296" y="76" width="195" height="82" rx="18" ry="18" fill="rgba(15,23,42,0.08)"/>
<rect x="292" y="70" width="195" height="82" rx="18" ry="18" fill="#fde68a" stroke="#f59e0b" stroke-width="3.2" transform="rotate(-0.6 389.5 111.0)"/>
<rect x="294" y="72" width="191" height="78" rx="16" ry="16" fill="none" stroke="#ffffff" stroke-width="1.2" opacity="0.8" transform="rotate(0.35 389.5 111.0)"/>
<text x="389.5" y="111.0" class="nodeLabel">通道适配器</text>
<rect x="533" y="76" width="195" height="82" rx="18" ry="18" fill="rgba(15,23,42,0.08)"/>
<rect x="529" y="70" width="195" height="82" rx="18" ry="18" fill="#dbeafe" stroke="#60a5fa" stroke-width="3.2" transform="rotate(0.6 626.5 111.0)"/>
<rect x="531" y="72" width="191" height="78" rx="16" ry="16" fill="none" stroke="#ffffff" stroke-width="1.2" opacity="0.8" transform="rotate(-0.35 626.5 111.0)"/>
<text x="626.5" y="111.0" class="nodeLabel">网关服务器</text>
<rect x="770" y="76" width="195" height="82" rx="18" ry="18" fill="rgba(15,23,42,0.08)"/>
<rect x="766" y="70" width="195" height="82" rx="18" ry="18" fill="#bfdbfe" stroke="#3b82f6" stroke-width="3.2" transform="rotate(-0.6 863.5 111.0)"/>
<rect x="768" y="72" width="191" height="78" rx="16" ry="16" fill="none" stroke="#ffffff" stroke-width="1.2" opacity="0.8" transform="rotate(0.35 863.5 111.0)"/>
<text x="863.5" y="111.0" class="nodeLabel">会话路由器</text>
<rect x="770" y="246" width="195" height="82" rx="18" ry="18" fill="rgba(15,23,42,0.08)"/>
<rect x="766" y="240" width="195" height="82" rx="18" ry="18" fill="#e9d5ff" stroke="#a78bfa" stroke-width="3.2" transform="rotate(0.6 863.5 281.0)"/>
<rect x="768" y="242" width="191" height="78" rx="16" ry="16" fill="none" stroke="#ffffff" stroke-width="1.2" opacity="0.8" transform="rotate(-0.35 863.5 281.0)"/>
<text x="863.5" y="281.0" class="nodeLabel">智能体运行器</text>
<rect x="533" y="246" width="195" height="82" rx="18" ry="18" fill="rgba(15,23,42,0.08)"/>
<rect x="529" y="240" width="195" height="82" rx="18" ry="18" fill="#ddd6fe" stroke="#8b5cf6" stroke-width="3.2" transform="rotate(-0.6 626.5 281.0)"/>
<rect x="531" y="242" width="191" height="78" rx="16" ry="16" fill="none" stroke="#ffffff" stroke-width="1.2" opacity="0.8" transform="rotate(0.35 626.5 281.0)"/>
<text x="626.5" y="281.0" class="nodeLabel">模型解析器</text>
<rect x="296" y="246" width="195" height="82" rx="18" ry="18" fill="rgba(15,23,42,0.08)"/>
<rect x="292" y="240" width="195" height="82" rx="18" ry="18" fill="#ccfbf1" stroke="#14b8a6" stroke-width="3.2" transform="rotate(0.6 389.5 281.0)"/>
<rect x="294" y="242" width="191" height="78" rx="16" ry="16" fill="none" stroke="#ffffff" stroke-width="1.2" opacity="0.8" transform="rotate(-0.35 389.5 281.0)"/>
<text x="389.5" y="269.0" class="nodeLabel">系统提示词</text>
<text x="389.5" y="297.0" class="nodeLabel">构建器</text>
<rect x="59" y="246" width="195" height="82" rx="18" ry="18" fill="rgba(15,23,42,0.08)"/>
<rect x="55" y="240" width="195" height="82" rx="18" ry="18" fill="#99f6e4" stroke="#0d9488" stroke-width="3.2" transform="rotate(-0.6 152.5 281.0)"/>
<rect x="57" y="242" width="191" height="78" rx="16" ry="16" fill="none" stroke="#ffffff" stroke-width="1.2" opacity="0.8" transform="rotate(0.35 152.5 281.0)"/>
<text x="152.5" y="281.0" class="nodeLabel">历史加载器</text>
<rect x="59" y="416" width="195" height="82" rx="18" ry="18" fill="rgba(15,23,42,0.08)"/>
<rect x="55" y="410" width="195" height="82" rx="18" ry="18" fill="#ecfccb" stroke="#84cc16" stroke-width="3.2" transform="rotate(0.6 152.5 451.0)"/>
<rect x="57" y="412" width="191" height="78" rx="16" ry="16" fill="none" stroke="#ffffff" stroke-width="1.2" opacity="0.8" transform="rotate(-0.35 152.5 451.0)"/>
<text x="152.5" y="451.0" class="nodeLabel">会话</text>
<rect x="296" y="416" width="195" height="82" rx="18" ry="18" fill="rgba(15,23,42,0.08)"/>
<rect x="292" y="410" width="195" height="82" rx="18" ry="18" fill="#fee2e2" stroke="#f87171" stroke-width="3.2" transform="rotate(-0.6 389.5 451.0)"/>
<rect x="294" y="412" width="191" height="78" rx="16" ry="16" fill="none" stroke="#ffffff" stroke-width="1.2" opacity="0.8" transform="rotate(0.35 389.5 451.0)"/>
<text x="389.5" y="451.0" class="nodeLabel">任务通道队列</text>
<rect x="533" y="416" width="195" height="82" rx="18" ry="18" fill="rgba(15,23,42,0.08)"/>
<rect x="529" y="410" width="195" height="82" rx="18" ry="18" fill="#fecaca" stroke="#ef4444" stroke-width="3.2" transform="rotate(0.6 626.5 451.0)"/>
<rect x="531" y="412" width="191" height="78" rx="16" ry="16" fill="none" stroke="#ffffff" stroke-width="1.2" opacity="0.8" transform="rotate(-0.35 626.5 451.0)"/>
<text x="626.5" y="439.0" class="nodeLabel">上下文窗口</text>
<text x="626.5" y="467.0" class="nodeLabel">防护机制</text>
<rect x="770" y="416" width="195" height="82" rx="18" ry="18" fill="rgba(15,23,42,0.08)"/>
<rect x="766" y="410" width="195" height="82" rx="18" ry="18" fill="#fde2e8" stroke="#ec4899" stroke-width="3.2" transform="rotate(-0.6 863.5 451.0)"/>
<rect x="768" y="412" width="191" height="78" rx="16" ry="16" fill="none" stroke="#ffffff" stroke-width="1.2" opacity="0.8" transform="rotate(0.35 863.5 451.0)"/>
<text x="863.5" y="451.0" class="nodeLabel">大语言模型 API</text>
<rect x="770" y="586" width="195" height="82" rx="18" ry="18" fill="rgba(15,23,42,0.08)"/>
<rect x="766" y="580" width="195" height="82" rx="18" ry="18" fill="#e0e7ff" stroke="#6366f1" stroke-width="3.2" transform="rotate(0.6 863.5 621.0)"/>
<rect x="768" y="582" width="191" height="78" rx="16" ry="16" fill="none" stroke="#ffffff" stroke-width="1.2" opacity="0.8" transform="rotate(-0.35 863.5 621.0)"/>
<text x="863.5" y="621.0" class="nodeLabel">智能体循环</text>
<rect x="533" y="586" width="195" height="82" rx="18" ry="18" fill="rgba(15,23,42,0.08)"/>
<rect x="529" y="580" width="195" height="82" rx="18" ry="18" fill="#fae8ff" stroke="#d946ef" stroke-width="3.2" transform="rotate(-0.6 626.5 621.0)"/>
<rect x="531" y="582" width="191" height="78" rx="16" ry="16" fill="none" stroke="#ffffff" stroke-width="1.2" opacity="0.8" transform="rotate(0.35 626.5 621.0)"/>
<text x="626.5" y="621.0" class="nodeLabel">反馈通路</text>
<rect x="296" y="586" width="195" height="82" rx="18" ry="18" fill="rgba(15,23,42,0.08)"/>
<rect x="292" y="580" width="195" height="82" rx="18" ry="18" fill="#fde68a" stroke="#f59e0b" stroke-width="3.2" transform="rotate(0.6 389.5 621.0)"/>
<rect x="294" y="582" width="191" height="78" rx="16" ry="16" fill="none" stroke="#ffffff" stroke-width="1.2" opacity="0.8" transform="rotate(-0.35 389.5 621.0)"/>
<text x="389.5" y="621.0" class="nodeLabel">通道适配器</text>
<rect x="59" y="586" width="195" height="82" rx="18" ry="18" fill="rgba(15,23,42,0.08)"/>
<rect x="55" y="580" width="195" height="82" rx="18" ry="18" fill="#dcfce7" stroke="#22c55e" stroke-width="3.2" transform="rotate(-0.6 152.5 621.0)"/>
<rect x="57" y="582" width="191" height="78" rx="16" ry="16" fill="none" stroke="#ffffff" stroke-width="1.2" opacity="0.8" transform="rotate(0.35 152.5 621.0)"/>
<text x="152.5" y="621.0" class="nodeLabel">最终文本</text>
<line x1="250" y1="111.0" x2="292" y2="111.0" class="arrow"/>
<line x1="292" y1="111.0" x2="281.3" y2="116.4" class="arrow"/>
<line x1="292" y1="111.0" x2="281.3" y2="105.6" class="arrow"/>
<line x1="487" y1="111.0" x2="529" y2="111.0" class="arrow"/>
<line x1="529" y1="111.0" x2="518.3" y2="116.4" class="arrow"/>
<line x1="529" y1="111.0" x2="518.3" y2="105.6" class="arrow"/>
<line x1="724" y1="111.0" x2="766" y2="111.0" class="arrow"/>
<line x1="766" y1="111.0" x2="755.3" y2="116.4" class="arrow"/>
<line x1="766" y1="111.0" x2="755.3" y2="105.6" class="arrow"/>
<path d="M 863.5 152 L 863.5 196.0 L 863.5 196.0 L 863.5 240" class="arrow"/>
<line x1="863.5" y1="240" x2="858.1" y2="229.3" class="arrow"/>
<line x1="863.5" y1="240" x2="868.9" y2="229.3" class="arrow"/>
<line x1="766" y1="281.0" x2="724" y2="281.0" class="arrow"/>
<line x1="724" y1="281.0" x2="734.7" y2="275.6" class="arrow"/>
<line x1="724" y1="281.0" x2="734.7" y2="286.4" class="arrow"/>
<line x1="529" y1="281.0" x2="487" y2="281.0" class="arrow"/>
<line x1="487" y1="281.0" x2="497.7" y2="275.6" class="arrow"/>
<line x1="487" y1="281.0" x2="497.7" y2="286.4" class="arrow"/>
<line x1="292" y1="281.0" x2="250" y2="281.0" class="arrow"/>
<line x1="250" y1="281.0" x2="260.7" y2="275.6" class="arrow"/>
<line x1="250" y1="281.0" x2="260.7" y2="286.4" class="arrow"/>
<path d="M 152.5 322 L 152.5 366.0 L 152.5 366.0 L 152.5 410" class="arrow"/>
<line x1="152.5" y1="410" x2="147.1" y2="399.3" class="arrow"/>
<line x1="152.5" y1="410" x2="157.9" y2="399.3" class="arrow"/>
<line x1="250" y1="451.0" x2="292" y2="451.0" class="arrow"/>
<line x1="292" y1="451.0" x2="281.3" y2="456.4" class="arrow"/>
<line x1="292" y1="451.0" x2="281.3" y2="445.6" class="arrow"/>
<line x1="487" y1="451.0" x2="529" y2="451.0" class="arrow"/>
<line x1="529" y1="451.0" x2="518.3" y2="456.4" class="arrow"/>
<line x1="529" y1="451.0" x2="518.3" y2="445.6" class="arrow"/>
<line x1="724" y1="451.0" x2="766" y2="451.0" class="arrow"/>
<line x1="766" y1="451.0" x2="755.3" y2="456.4" class="arrow"/>
<line x1="766" y1="451.0" x2="755.3" y2="445.6" class="arrow"/>
<path d="M 863.5 492 L 863.5 536.0 L 863.5 536.0 L 863.5 580" class="arrow"/>
<line x1="863.5" y1="580" x2="858.1" y2="569.3" class="arrow"/>
<line x1="863.5" y1="580" x2="868.9" y2="569.3" class="arrow"/>
<line x1="766" y1="621.0" x2="724" y2="621.0" class="arrow"/>
<line x1="724" y1="621.0" x2="734.7" y2="615.6" class="arrow"/>
<line x1="724" y1="621.0" x2="734.7" y2="626.4" class="arrow"/>
<line x1="529" y1="621.0" x2="487" y2="621.0" class="arrow"/>
<line x1="487" y1="621.0" x2="497.7" y2="615.6" class="arrow"/>
<line x1="487" y1="621.0" x2="497.7" y2="626.4" class="arrow"/>
<line x1="292" y1="621.0" x2="250" y2="621.0" class="arrow"/>
<line x1="250" y1="621.0" x2="260.7" y2="615.6" class="arrow"/>
<line x1="250" y1="621.0" x2="260.7" y2="626.4" class="arrow"/>
</svg>